<svg width="14" height="14" viewBox="0 0 14 14" fill="none" xmlns="http://www.w3.org/2000/svg">
<g clip-path="url(#clip0_57_2681)">
<path d="M5.98962 12.25C6.09202 12.4273 6.2393 12.5746 6.41665 12.677C6.594 12.7794 6.79517 12.8333 6.99996 12.8333C7.20474 12.8333 7.40592 12.7794 7.58327 12.677C7.76061 12.5746 7.90789 12.4273 8.01029 12.25" stroke="currentColor" stroke-width="1.16667" stroke-linecap="round" stroke-linejoin="round"/>
<path d="M1.90277 8.94019C1.82657 9.02371 1.77628 9.12758 1.75802 9.23916C1.73976 9.35073 1.75433 9.46521 1.79994 9.56867C1.84554 9.67212 1.92024 9.76009 2.01492 9.82188C2.10961 9.88367 2.22021 9.9166 2.33327 9.91669H11.6666C11.7797 9.91673 11.8903 9.88392 11.985 9.82225C12.0798 9.76058 12.1546 9.67271 12.2003 9.56932C12.246 9.46593 12.2607 9.35149 12.2426 9.2399C12.2245 9.12831 12.1744 9.02439 12.0983 8.94077C11.3224 8.14102 10.4999 7.2911 10.4999 4.66669C10.4999 3.73843 10.1312 2.84819 9.47481 2.19181C8.81844 1.53544 7.9282 1.16669 6.99994 1.16669C6.07168 1.16669 5.18144 1.53544 4.52507 2.19181C3.86869 2.84819 3.49994 3.73843 3.49994 4.66669C3.49994 7.2911 2.67686 8.14102 1.90277 8.94019Z" stroke="currentColor" stroke-width="1.16667" stroke-linecap="round" stroke-linejoin="round"/>
</g>
<defs>
<clipPath id="clip0_57_2681">
<rect width="14" height="14" fill="white"/>
</clipPath>
</defs>
</svg>
