<svg width="25" height="25" viewBox="0 0 25 25" fill="none" xmlns="http://www.w3.org/2000/svg">
<path d="M16.6666 21.875V19.7917C16.6666 18.6866 16.2276 17.6268 15.4462 16.8454C14.6648 16.064 13.605 15.625 12.4999 15.625H6.24992C5.14485 15.625 4.08504 16.064 3.30364 16.8454C2.52224 17.6268 2.08325 18.6866 2.08325 19.7917V21.875" stroke="#6A7282" stroke-width="1.66667" stroke-linecap="round" stroke-linejoin="round"/>
<path d="M9.37492 11.4583C11.6761 11.4583 13.5416 9.59285 13.5416 7.29167C13.5416 4.99048 11.6761 3.125 9.37492 3.125C7.07373 3.125 5.20825 4.99048 5.20825 7.29167C5.20825 9.59285 7.07373 11.4583 9.37492 11.4583Z" stroke="#6A7282" stroke-width="1.66667" stroke-linecap="round" stroke-linejoin="round"/>
<path d="M22.9167 21.875V19.7917C22.9161 18.8685 22.6088 17.9716 22.0432 17.242C21.4776 16.5124 20.6856 15.9912 19.7917 15.7604" stroke="#6A7282" stroke-width="1.66667" stroke-linecap="round" stroke-linejoin="round"/>
<path d="M16.6667 3.26042C17.563 3.4899 18.3574 4.01115 18.9247 4.74199C19.492 5.47284 19.7999 6.3717 19.7999 7.29688C19.7999 8.22206 19.492 9.12092 18.9247 9.85176C18.3574 10.5826 17.563 11.1039 16.6667 11.3333" stroke="#6A7282" stroke-width="1.66667" stroke-linecap="round" stroke-linejoin="round"/>
</svg>
