<svg width="13" height="13" viewBox="0 0 13 13" fill="none" xmlns="http://www.w3.org/2000/svg">
<path d="M5.24946 10.5C5.24941 10.6084 5.27957 10.7147 5.33655 10.8069C5.39353 10.8991 5.47508 10.9736 5.57205 11.0221L6.73871 11.6054C6.82767 11.6499 6.92651 11.6708 7.02586 11.6663C7.1252 11.6618 7.22174 11.632 7.30632 11.5797C7.39089 11.5274 7.46069 11.4543 7.50908 11.3675C7.55747 11.2806 7.58284 11.1828 7.5828 11.0833V7C7.58293 6.71089 7.6904 6.43213 7.88438 6.21775L12.0978 1.5575C12.1733 1.47383 12.223 1.37007 12.2408 1.25877C12.2586 1.14747 12.2437 1.0334 12.1981 0.930346C12.1524 0.827296 12.0779 0.739682 11.9835 0.678099C11.8891 0.616516 11.7788 0.583602 11.6661 0.583336H1.16613C1.05332 0.583377 0.942938 0.616128 0.84836 0.677624C0.753782 0.739119 0.679065 0.82672 0.633259 0.929814C0.587452 1.03291 0.572523 1.14707 0.590279 1.25848C0.608034 1.36989 0.657713 1.47375 0.733298 1.5575L4.94788 6.21775C5.14186 6.43213 5.24933 6.71089 5.24946 7V10.5Z" stroke="currentColor" stroke-width="1.16667" stroke-linecap="round" stroke-linejoin="round"/>
</svg>
