<svg width="30" height="30" viewBox="0 0 30 30" fill="none" xmlns="http://www.w3.org/2000/svg">
<path d="M2.77273 11.1587H3.69263V9.02759C3.69263 6.55225 4.95995 4.29907 7.00223 2.66309C9.05245 1.01978 11.8837 0 15 0C18.1167 0 20.9476 1.01978 22.9984 2.66284C25.0404 4.29883 26.3077 6.55225 26.3077 9.02734V11.1584H27.2276C27.9908 11.1584 28.6844 11.3977 29.1863 11.7834C29.6882 12.1692 30 12.7017 30 13.2878V27.8704C30 28.4565 29.6885 28.9893 29.1863 29.3748C28.684 29.7603 27.9908 29.9998 27.2276 29.9998H2.77273C2.00922 29.9998 1.31596 29.7605 0.813732 29.3748C0.311507 28.989 0 28.457 0 27.8706V13.2881C0 12.7019 0.311825 12.1692 0.813732 11.7837C1.31596 11.3982 2.00922 11.1587 2.77273 11.1587ZM13.986 21.3137L12.6542 23.9941H17.3465L16.1119 21.2769C16.8954 20.9668 17.431 20.3394 17.431 19.616C17.431 18.585 16.3423 17.749 15.0003 17.749C13.658 17.749 12.5693 18.5852 12.5693 19.616C12.569 20.3691 13.1497 21.0183 13.986 21.3137ZM5.64304 11.1587H24.3573V9.02759C24.3573 6.94971 23.3001 5.06372 21.5963 3.69897C19.9015 2.34106 17.5668 1.49829 15 1.49829C12.4332 1.49829 10.0985 2.34106 8.40369 3.69873C6.70025 5.06348 5.64272 6.94946 5.64272 9.02734L5.64304 11.1587ZM27.2276 12.657H2.77273C2.54768 12.657 2.34266 12.7283 2.19326 12.843C2.04387 12.9578 1.95105 13.1155 1.95105 13.2881V27.8706C1.95105 28.0432 2.04387 28.2009 2.19326 28.3154C2.34266 28.4304 2.548 28.5015 2.77273 28.5015H27.2279C27.453 28.5015 27.6583 28.4304 27.8074 28.3154C27.9568 28.2007 28.0496 28.0432 28.0496 27.8706V13.2881C28.0496 13.1155 27.9568 12.9578 27.8074 12.843C27.6577 12.7283 27.4526 12.657 27.2276 12.657Z" fill="currentColor"/>
</svg>
