<svg width="12" height="12" viewBox="0 0 12 12" fill="none" xmlns="http://www.w3.org/2000/svg">
<path d="M3.59095 7.48319L3.00762 6.89986L1.19928 7.47736H1.14095C1.11252 7.47913 1.08404 7.47484 1.0574 7.46479C1.03075 7.45473 1.00654 7.43913 0.986367 7.41902L0.56345 7.00194C0.529287 6.96944 0.507425 6.92612 0.501577 6.87934C0.495729 6.83255 0.506254 6.78518 0.531367 6.74527L1.02428 5.89652C1.32959 5.37403 1.75553 4.9322 2.26649 4.60797C2.77745 4.28373 3.3586 4.08651 3.96137 4.03277L4.68762 3.96861C5.10956 3.46694 5.49845 3.03722 5.85428 2.67944C6.52944 1.96429 7.33536 1.3851 8.22845 0.973191C9.13876 0.632924 10.1067 0.473421 11.078 0.503607C11.1368 0.50413 11.1931 0.527084 11.2355 0.567774C11.2557 0.586325 11.2719 0.608863 11.2829 0.633964C11.2939 0.659065 11.2997 0.686184 11.2997 0.713607C11.3196 1.68787 11.1461 2.65641 10.7893 3.56319C10.388 4.45891 9.81529 5.26744 9.10345 5.94319C8.7447 6.30486 8.31303 6.69277 7.81428 7.10986L7.75012 7.83319C7.69778 8.43566 7.50209 9.01686 7.1794 9.5283C6.8567 10.0397 6.41636 10.4666 5.89512 10.7732L5.0522 11.2661C5.01895 11.2836 4.98187 11.2927 4.94428 11.2924C4.88847 11.2912 4.83481 11.2706 4.79262 11.234L4.3697 10.8082C4.34239 10.7821 4.32299 10.7488 4.3137 10.7122C4.30442 10.6756 4.30563 10.6371 4.3172 10.6011L4.88012 8.77236L4.31428 8.20652M9.80928 3.18402C9.81006 2.86737 9.68521 2.56334 9.46213 2.33861C9.23904 2.11389 8.93593 1.98682 8.61928 1.98527C8.45708 1.97727 8.29494 2.0023 8.14271 2.05885C7.99048 2.11541 7.85132 2.20231 7.73369 2.31427C7.61606 2.42624 7.52241 2.56094 7.45841 2.7102C7.39442 2.85946 7.36142 3.02017 7.36142 3.18257C7.36142 3.34496 7.39442 3.50567 7.45841 3.65493C7.52241 3.80419 7.61606 3.93889 7.73369 4.05086C7.85132 4.16282 7.99048 4.24972 8.14271 4.30628C8.29494 4.36283 8.45708 4.38787 8.61928 4.37986C8.9337 4.38032 9.23558 4.25663 9.45928 4.03569C9.57182 3.92466 9.66062 3.7919 9.72029 3.6455C9.77995 3.4991 9.80924 3.34209 9.80637 3.18402H9.80928Z" stroke="#CA3500" stroke-linecap="round" stroke-linejoin="round"/>
<path d="M7.82596 7.10986L4.88013 8.77236" stroke="#CA3500" stroke-linecap="round" stroke-linejoin="round"/>
<path d="M4.68763 3.96863L3.02222 6.91446" stroke="#CA3500" stroke-linecap="round" stroke-linejoin="round"/>
<path d="M2.68677 9.10483C3.85343 8.88899 5.92427 6.94649 6.16635 5.62524C4.83635 5.87899 2.89385 7.93816 2.68677 9.10483Z" stroke="#CA3500" stroke-linecap="round" stroke-linejoin="round"/>
</svg>
