<svg width="25" height="25" viewBox="0 0 25 25" fill="none" xmlns="http://www.w3.org/2000/svg">
<path d="M12.7292 2.08334H12.2708C11.7183 2.08334 11.1884 2.30284 10.7977 2.69354C10.407 3.08424 10.1875 3.61414 10.1875 4.16668V4.35418C10.1871 4.71952 10.0907 5.07833 9.90785 5.39463C9.72502 5.71093 9.46223 5.97359 9.14583 6.15626L8.69792 6.41668C8.38121 6.59953 8.02195 6.69579 7.65625 6.69579C7.29055 6.69579 6.93129 6.59953 6.61459 6.41668L6.45833 6.33334C5.98028 6.05758 5.41233 5.98276 4.87917 6.12533C4.34601 6.2679 3.8912 6.61619 3.61459 7.09376L3.38542 7.48959C3.10965 7.96765 3.03484 8.5356 3.17741 9.06876C3.31997 9.60192 3.66827 10.0567 4.14584 10.3333L4.30209 10.4375C4.61696 10.6193 4.87877 10.8803 5.06151 11.1946C5.24425 11.5089 5.34156 11.8656 5.34375 12.2292V12.7604C5.34521 13.1275 5.24964 13.4885 5.06671 13.8068C4.88379 14.1251 4.62001 14.3894 4.30209 14.5729L4.14584 14.6667C3.66827 14.9433 3.31997 15.3981 3.17741 15.9313C3.03484 16.4644 3.10965 17.0324 3.38542 17.5104L3.61459 17.9063C3.8912 18.3838 4.34601 18.7321 4.87917 18.8747C5.41233 19.0173 5.98028 18.9424 6.45833 18.6667L6.61459 18.5833C6.93129 18.4005 7.29055 18.3042 7.65625 18.3042C8.02195 18.3042 8.38121 18.4005 8.69792 18.5833L9.14583 18.8438C9.46223 19.0264 9.72502 19.2891 9.90785 19.6054C10.0907 19.9217 10.1871 20.2805 10.1875 20.6458V20.8333C10.1875 21.3859 10.407 21.9158 10.7977 22.3065C11.1884 22.6972 11.7183 22.9167 12.2708 22.9167H12.7292C13.2817 22.9167 13.8116 22.6972 14.2023 22.3065C14.593 21.9158 14.8125 21.3859 14.8125 20.8333V20.6458C14.8129 20.2805 14.9093 19.9217 15.0921 19.6054C15.275 19.2891 15.5378 19.0264 15.8542 18.8438L16.3021 18.5833C16.6188 18.4005 16.978 18.3042 17.3438 18.3042C17.7095 18.3042 18.0687 18.4005 18.3854 18.5833L18.5417 18.6667C19.0197 18.9424 19.5877 19.0173 20.1208 18.8747C20.654 18.7321 21.1088 18.3838 21.3854 17.9063L21.6146 17.5C21.8904 17.022 21.9652 16.454 21.8226 15.9208C21.68 15.3877 21.3317 14.9329 20.8542 14.6563L20.6979 14.5729C20.38 14.3894 20.1162 14.1251 19.9333 13.8068C19.7504 13.4885 19.6548 13.1275 19.6563 12.7604V12.2396C19.6548 11.8725 19.7504 11.5115 19.9333 11.1932C20.1162 10.8749 20.38 10.6106 20.6979 10.4271L20.8542 10.3333C21.3317 10.0567 21.68 9.60192 21.8226 9.06876C21.9652 8.5356 21.8904 7.96765 21.6146 7.48959L21.3854 7.09376C21.1088 6.61619 20.654 6.2679 20.1208 6.12533C19.5877 5.98276 19.0197 6.05758 18.5417 6.33334L18.3854 6.41668C18.0687 6.59953 17.7095 6.69579 17.3438 6.69579C16.978 6.69579 16.6188 6.59953 16.3021 6.41668L15.8542 6.15626C15.5378 5.97359 15.275 5.71093 15.0921 5.39463C14.9093 5.07833 14.8129 4.71952 14.8125 4.35418V4.16668C14.8125 3.61414 14.593 3.08424 14.2023 2.69354C13.8116 2.30284 13.2817 2.08334 12.7292 2.08334Z" stroke="currentColor" stroke-width="1.66667" stroke-linecap="round" stroke-linejoin="round"/>
<path d="M12.5 15.625C14.2259 15.625 15.625 14.2259 15.625 12.5C15.625 10.7741 14.2259 9.375 12.5 9.375C10.7741 9.375 9.375 10.7741 9.375 12.5C9.375 14.2259 10.7741 15.625 12.5 15.625Z" stroke="currentColor" stroke-width="1.66667" stroke-linecap="round" stroke-linejoin="round"/>
</svg>
