<svg width="27" height="27" viewBox="0 0 27 27" fill="none" xmlns="http://www.w3.org/2000/svg">
<path d="M7.98447 10.7178C5.2335 11.3091 3.85801 11.6047 3.53078 12.6045C3.20352 13.6041 4.14124 14.6459 6.01667 16.7292L6.50186 17.2682C7.0348 17.8604 7.30127 18.1564 7.42114 18.5226C7.54103 18.8887 7.50074 19.2837 7.42017 20.0736L7.34681 20.7927C7.06327 23.5725 6.9215 24.9624 7.77825 25.5802C8.63499 26.1981 9.92285 25.6347 12.4986 24.5081L13.165 24.2166C13.8969 23.8965 14.2629 23.7364 14.6508 23.7364C15.0387 23.7364 15.4048 23.8965 16.1366 24.2166L16.803 24.5081C19.3787 25.6347 20.6666 26.1981 21.5233 25.5802C22.38 24.9624 22.2383 23.5725 21.9548 20.7927M23.2849 16.7292C25.1603 14.6459 26.0981 13.6041 25.7708 12.6045C25.4436 11.6047 24.0681 11.3091 21.3171 10.7178L20.6054 10.5648C19.8237 10.3968 19.4328 10.3127 19.119 10.0864C18.8052 9.86008 18.6038 9.51704 18.2013 8.83099L17.8348 8.20639C16.4182 5.79213 15.7098 4.58499 14.6508 4.58499C13.5918 4.58499 12.8834 5.79213 11.4668 8.20639" stroke="#6A7282" stroke-width="1.67" stroke-linecap="round"/>
<path d="M4.76901 0.834991C4.76901 0.834991 5.14787 2.65713 5.97852 3.44093C6.80915 4.22473 8.72973 4.57233 8.72973 4.57233C8.72973 4.57233 6.81168 4.93224 5.98662 5.72135C5.16157 6.51045 4.79567 8.33499 4.79567 8.33499C4.79567 8.33499 4.41682 6.51285 3.58617 5.72905C2.75553 4.94525 0.834961 4.59765 0.834961 4.59765C0.834961 4.59765 2.75301 4.23774 3.57806 3.44863C4.40312 2.65953 4.76901 0.834991 4.76901 0.834991Z" stroke="#6A7282" stroke-width="1.67" stroke-linejoin="round"/>
<path d="M21.8877 4.58499H24.5193M23.2035 5.83499V3.33499" stroke="#6A7282" stroke-width="1.67" stroke-linecap="round"/>
</svg>
